<svg xmlns="http://www.w3.org/2000/svg" xmlns:xlink="http://www.w3.org/1999/xlink" viewBox="0,0,256,256" width="500px" height="500px" fill-rule="nonzero"><g fill="none" fill-rule="nonzero" stroke="none" stroke-width="1" stroke-linecap="butt" stroke-linejoin="miter" stroke-miterlimit="10" stroke-dasharray="" stroke-dashoffset="0" font-family="none" font-weight="none" font-size="none" text-anchor="none" style="mix-blend-mode: normal"><g transform="scale(5.12,5.12)"><path d="M29.26,23.96c0,0.91 -0.4,1.72 -1.03,2.28l-4.68,4.75l-4.69,-4.75c-0.63,-0.56 -1.03,-1.37 -1.03,-2.28c0,-1.69 1.38,-3.07 3.08,-3.07c0.9,0 1.72,0.39 2.28,1.02c0.14,0.15 0.26,0.31 0.36,0.48c0.09,-0.17 0.22,-0.33 0.36,-0.48c0.55,-0.63 1.37,-1.02 2.27,-1.02c1.7,0 3.08,1.38 3.08,3.07z" fill="#79e7ff"></path><path d="M38.48,22.86c0,2.03 -1.53,3.71 -3.51,3.93v-7c0,-0.29 -0.03,-0.58 -0.09,-0.86c2.01,0.17 3.6,1.87 3.6,3.93z" fill="#79e7ff"></path><path d="M25,2c-12.68,0 -23,10.32 -23,23c0,12.68 10.32,23 23,23c12.68,0 23,-10.32 23,-23c0,-12.68 -10.32,-23 -23,-23zM34.97,30.32v1.77c0,1.94 -1.57,3.52 -3.52,3.52h-14.93c-1.95,0 -3.52,-1.58 -3.52,-3.52v-14.06c0,-1.46 1.18,-2.64 2.64,-2.64h18.65c3.91,0 7.34,2.91 7.68,6.8c0.38,4.27 -2.86,7.89 -7,8.13z" fill="#79e7ff"></path><g fill="#ffffff"><path d="M26.18,20.89c-0.9,0 -1.72,0.39 -2.27,1.02c-0.14,0.15 -0.27,0.31 -0.36,0.48c-0.1,-0.17 -0.22,-0.33 -0.36,-0.48c-0.56,-0.63 -1.38,-1.02 -2.28,-1.02c-1.7,0 -3.08,1.38 -3.08,3.07c0,0.91 0.4,1.72 1.03,2.28l4.69,4.75l4.68,-4.75c0.63,-0.56 1.03,-1.37 1.03,-2.28c0,-1.69 -1.38,-3.07 -3.08,-3.07z"></path></g><path d="M29.26,23.96c0,0.91 -0.4,1.72 -1.03,2.28l-4.68,4.75l-4.69,-4.75c-0.63,-0.56 -1.03,-1.37 -1.03,-2.28c0,-1.69 1.38,-3.07 3.08,-3.07c0.9,0 1.72,0.39 2.28,1.02c0.14,0.15 0.26,0.31 0.36,0.48c0.09,-0.17 0.22,-0.33 0.36,-0.48c0.55,-0.63 1.37,-1.02 2.27,-1.02c1.7,0 3.08,1.38 3.08,3.07z" fill="#79e7ff"></path></g></g></svg>